<svg width="2409" height="1271" viewBox="0 0 2409 1271" fill="none"
    xmlns="http://www.w3.org/2000/svg">
    <g clip-path="url(#clip0_143_10)">
        <path d="M275.108 385.293V565.178H174.587V660.307H0V385.293H275.108Z" fill="#F26921" />
        <path d="M575.268 385.293H300.16V565.178H575.268V385.293Z" fill="#F26921" />
        <path d="M875.361 385.293V660.307H700.774V565.178H600.254V385.293H875.361Z" fill="#F26921" />
        <path d="M174.587 690.641H0V965.654H174.587V690.641Z" fill="#F26921" />
        <path
            d="M203.975 594.539V1061.79H671.384V594.539H203.975ZM556.529 988.464C540.282 986.621 526.629 985.819 493.998 985.819H374.517C345.71 985.819 335.129 986.195 318.813 986.997C321.083 971.796 321.834 957.755 321.834 931.619V724.693C321.834 701.184 321.1 687.894 318.813 669.315C334.309 670.048 344.976 670.492 374.517 670.492H495.534C521.321 670.492 534.189 669.69 552.04 667.848V738.734C534.547 736.823 520.877 736.021 495.534 736.021H396.925V791.774H478.86C503.845 791.774 512.959 791.399 535.725 789.13V859.282C517.874 857.372 505.006 856.57 478.86 856.57H396.925V920.256H494.732C523.54 920.256 540.282 919.523 556.529 917.612V988.464Z"
            fill="#F26921" />
        <path
            d="M203.975 594.539V1061.79H671.384V594.539H203.975ZM556.529 988.464C540.282 986.621 526.629 985.819 493.998 985.819H374.517C345.71 985.819 335.129 986.195 318.813 986.997C321.083 971.796 321.834 957.755 321.834 931.619V724.693C321.834 701.184 321.1 687.894 318.813 669.315C334.309 670.048 344.976 670.492 374.517 670.492H495.534C521.321 670.492 534.189 669.69 552.04 667.848V738.734C534.547 736.823 520.877 736.021 495.534 736.021H396.925V791.774H478.86C503.845 791.774 512.959 791.399 535.725 789.13V859.282C517.874 857.372 505.006 856.57 478.86 856.57H396.925V920.256H494.732C523.54 920.256 540.282 919.523 556.529 917.612V988.464Z"
            fill="#ffff" />
        <path d="M875.361 690.641H700.773V965.654H875.361V690.641Z" fill="#F26921" />
        <path
            d="M275.108 1091.18V1271H87.7204C39.2694 1271 0 1231.74 0 1183.31V995.986H174.587V1091.18H275.108Z"
            fill="#F26921" />
        <path d="M575.268 1091.18H300.16V1271H575.268V1091.18Z" fill="#F26921" />
        <path
            d="M875.361 995.986V1183.31C875.361 1231.74 836.092 1271 787.641 1271H600.254V1091.18H700.774V995.986H875.361Z"
            fill="#F26921" />
        <path
            d="M1010.76 1075.56C964.601 1075.56 946.988 1076.17 920.877 1077.38C924.512 1051.26 925.741 1030.64 925.741 988.138V656.023C925.741 623.847 924.529 597.745 920.877 568.605C951.852 570.414 960.351 570.414 1010.15 570.414H1169.28C1267.66 570.414 1325.36 617.774 1325.36 697.906C1325.36 734.944 1313.21 764.084 1290.14 784.727C1276.78 796.259 1265.84 802.333 1240.94 811.443C1270.7 818.114 1286.49 825.416 1304.1 840.599C1330.21 863.665 1343.57 896.455 1343.57 936.53C1343.57 1023.95 1281.62 1075.57 1175.95 1075.57H1010.76V1075.56ZM1151.66 765.312C1183.85 765.312 1203.9 746.494 1203.9 716.741C1203.9 686.988 1185.08 669.995 1150.45 669.995H1044.78V765.312H1151.66ZM1044.78 975.377H1156.53C1194.79 975.377 1217.88 954.119 1217.88 918.31C1217.88 883.097 1194.81 862.454 1155.93 862.454H1044.78V975.377Z"
            fill="#ffff" />
        <path
            d="M1869.62 570.414C1865.97 596.516 1864.76 618.388 1864.76 662.097V870.95C1864.76 1009.38 1781.54 1087.7 1635.18 1087.7C1559.87 1087.7 1498.53 1066.45 1462.08 1028.2C1426.86 990.561 1408.63 937.742 1408.63 869.739V662.097C1408.63 620.196 1407.42 593.48 1403.77 570.414H1534.95C1531.32 592.883 1530.09 617.16 1530.09 662.097V870.95C1530.09 947.449 1564.7 983.873 1635.76 983.873C1708.64 983.873 1743.26 947.432 1743.26 870.95V662.097C1743.26 616.545 1742.05 597.728 1738.4 570.414H1869.62Z"
            fill="#ffff" />
        <path
            d="M2221.34 985.698C2221.34 1017.28 2222.55 1043.98 2226.2 1075.55H2093.81C2096.84 1047.63 2098.67 1019.7 2098.67 985.698V873.372L1958.98 643.876C1948.04 625.058 1934.68 605.012 1910.39 570.414H2064.06C2070.73 591.671 2077.42 607.452 2092.61 634.168L2160.02 757.413L2227.45 634.765C2242.64 606.838 2251.14 588.02 2255.39 570.396H2409.05C2391.44 595.902 2368.37 630.517 2360.46 643.859L2221.38 873.355V985.698H2221.34Z"
            fill="#ffff" />
        <path
            d="M268.282 355.59L224.354 351.871L238.689 182.785C247.512 78.5802 333.048 0 437.664 0C542.28 0 627.816 78.5802 636.656 182.785L650.975 351.871L607.047 355.59L592.728 186.504C585.85 105.297 519.19 44.067 437.664 44.067C356.139 44.067 289.478 105.297 282.601 186.504L268.282 355.59Z"
            fill="#ffff" />
    </g>
    <defs>
        <clipPath id="clip0_143_10">
            <rect width="2409" height="1271" fill="white" />
        </clipPath>
    </defs>
</svg>